# xmcd
#
# Track frame offsets:
#	150
#	16759
#	37224
#	56825
#	81649
#	102526
#	131206
#	149105
#	168540
#	184883
#	202529
#	235594
#	252080
#	270960
#	287620
#	316043
#
# Disc length: 4487 seconds
#
# Revision: 0
# Processed by: cddbd v1.5.2PL0 Copyright (c) Steve Scherf et al.
# Submitted via: audiograbber 1.83.01
#
DISCID=e7118510
DTITLE=Sade - All Time Best: Reclam Edition
DYEAR=2013
DGENRE=Soul
TTITLE0=Your Love Is King (Album Version)
TTITLE1=Hang On To Your Love (Album Version)
TTITLE2=Smooth Operator (Single Version)
TTITLE3=Jezebel (Album Version)
TTITLE4=The Sweetest Taboo (Album Version)
TTITLE5=Is It A Crime (Album Version)
TTITLE6=Never As Good As The First Time (Album Version)
TTITLE7=Love Is Stronger Than Pride (Album Version)
TTITLE8=Paradise (Album Version)
TTITLE9=Nothing Can Come Between Us (Album Version)
TTITLE10=No Ordinary Love (Album Version)
TTITLE11=Like A Tattoo (Album Version)
TTITLE12=Kiss Of Life (Album Version)
TTITLE13=Please Send Me Someone To Love (Album Version)
TTITLE14=Cherish The Day (Album Version)
TTITLE15=Pearls (Album Version)
EXTD=
EXTT0=
EXTT1=
EXTT2=
EXTT3=
EXTT4=
EXTT5=
EXTT6=
EXTT7=
EXTT8=
EXTT9=
EXTT10=
EXTT11=
EXTT12=
EXTT13=
EXTT14=
EXTT15=
PLAYORDER=
